<svg width="108" height="37" viewBox="0 0 108 37" fill="none" xmlns="http://www.w3.org/2000/svg">
<path d="M17.656 0.671997L34.648 36H28.456L25.432 29.088H9.256L6.232 36H0.232L17.128 0.671997H17.656ZM15.256 15.696L11.416 24.24H23.32L19.528 15.744L17.464 10.896H17.368L15.256 15.696ZM43.1234 36.48C41.7794 36.48 40.4194 36.32 39.0434 36C37.6674 35.648 36.5154 35.072 35.5874 34.272L37.7474 29.328C38.3234 30 38.9634 30.512 39.6674 30.864C40.4034 31.184 41.2994 31.344 42.3554 31.344C43.3474 31.344 44.1474 31.168 44.7554 30.816C45.3634 30.464 45.8114 29.824 46.0994 28.896C46.4194 27.968 46.5794 26.64 46.5794 24.912V0.719999H51.9074V26.256C51.9074 29.84 51.0914 32.448 49.4594 34.08C47.8594 35.68 45.7474 36.48 43.1234 36.48ZM60.3524 0.719999H65.7284V36H60.3524V0.719999ZM90.0618 36.48C86.8618 36.48 83.9018 35.744 81.1818 34.272C78.4938 32.768 76.3498 30.64 74.7498 27.888C73.1498 25.136 72.3498 21.936 72.3498 18.288C72.3498 14.608 73.1498 11.408 74.7498 8.688C76.3498 5.936 78.4938 3.824 81.1818 2.352C83.9018 0.879998 86.8618 0.143998 90.0618 0.143998C93.2618 0.143998 96.2058 0.879998 98.8938 2.352C101.614 3.824 103.774 5.936 105.374 8.688C106.974 11.408 107.774 14.608 107.774 18.288C107.774 21.936 106.974 25.136 105.374 27.888C103.774 30.64 101.614 32.768 98.8938 34.272C96.2058 35.744 93.2618 36.48 90.0618 36.48ZM90.0618 31.632C92.2698 31.632 94.2858 31.12 96.1098 30.096C97.9338 29.04 99.3738 27.52 100.43 25.536C101.518 23.52 102.062 21.12 102.062 18.336C102.062 15.52 101.518 13.12 100.43 11.136C99.3738 9.12 97.9338 7.6 96.1098 6.576C94.3178 5.552 92.3018 5.04 90.0618 5.04C87.8218 5.04 85.7898 5.552 83.9658 6.576C82.1418 7.6 80.7018 9.12 79.6458 11.136C78.5898 13.12 78.0618 15.52 78.0618 18.336C78.0618 21.12 78.6058 23.52 79.6938 25.536C80.7818 27.52 82.2378 29.04 84.0618 30.096C85.9178 31.12 87.9178 31.632 90.0618 31.632Z" fill="white"/>
</svg>
