<svg width="449" height="416" viewBox="0 0 449 416" fill="none" xmlns="http://www.w3.org/2000/svg">
<path d="M204.168 317.736C191.162 317.751 178.693 322.924 169.497 332.121C160.3 341.317 155.127 353.786 155.112 366.792C157.416 431.72 250.928 431.704 253.224 366.792C253.209 353.786 248.036 341.317 238.839 332.121C229.643 322.924 217.174 317.751 204.168 317.736ZM204.168 392.264C197.49 392.146 191.125 389.41 186.443 384.645C181.762 379.88 179.139 373.468 179.139 366.788C179.139 360.108 181.762 353.696 186.443 348.931C191.125 344.166 197.49 341.43 204.168 341.312C210.926 341.312 217.407 343.997 222.185 348.775C226.963 353.553 229.648 360.034 229.648 366.792C229.648 373.55 226.963 380.031 222.185 384.809C217.407 389.588 210.926 392.264 204.168 392.264ZM332.336 317.736C319.33 317.751 306.861 322.924 297.665 332.121C288.468 341.317 283.295 353.786 283.28 366.792C285.584 431.72 379.104 431.696 381.392 366.792C381.377 353.786 376.204 341.317 367.007 332.121C357.811 322.924 345.342 317.751 332.336 317.736ZM332.336 392.264C325.658 392.146 319.293 389.41 314.611 384.645C309.93 379.88 307.307 373.468 307.307 366.788C307.307 360.108 309.93 353.696 314.611 348.931C319.293 344.166 325.658 341.43 332.336 341.312C339.094 341.312 345.575 343.997 350.353 348.775C355.132 353.553 357.816 360.034 357.816 366.792C357.816 373.55 355.132 380.031 350.353 384.809C345.575 389.588 339.094 392.264 332.336 392.264ZM439.912 94.608C436.038 89.7435 431.114 85.8179 425.509 83.1247C419.904 80.4316 413.763 79.0407 407.544 79.056H108.84L101.752 45.872C96.264 19.592 68.216 0.519991 35.072 0.519991H12.792C11.2181 0.478987 9.65199 0.753566 8.18594 1.32753C6.7199 1.9015 5.38363 2.76323 4.25596 3.8619C3.12829 4.96058 2.23205 6.27395 1.6201 7.72454C1.00815 9.17514 0.692871 10.7336 0.692871 12.308C0.692871 13.8824 1.00815 15.4408 1.6201 16.8914C2.23205 18.342 3.12829 19.6554 4.25596 20.7541C5.38363 21.8528 6.7199 22.7145 8.18594 23.2885C9.65199 23.8624 11.2181 24.137 12.792 24.096H35.064C56.744 24.096 75.496 35.536 78.68 50.744L87.8 93.44L129.176 276.976C131.204 286.173 136.322 294.398 143.677 300.281C151.033 306.163 160.182 309.348 169.6 309.304H374.32C383.737 309.348 392.885 306.164 400.24 300.284C407.596 294.403 412.714 286.18 414.744 276.984L447.976 129.6C449.358 123.536 449.351 117.237 447.954 111.176C446.558 105.115 443.809 99.4561 439.912 94.608ZM424.976 124.424L391.752 271.8C390.875 275.762 388.667 279.303 385.497 281.836C382.327 284.368 378.385 285.739 374.328 285.72H169.6C165.543 285.739 161.601 284.368 158.431 281.836C155.261 279.303 153.053 275.762 152.176 271.8L114.048 102.632H407.544C410.218 102.65 412.854 103.265 415.26 104.432C417.665 105.599 419.781 107.288 421.451 109.376C423.121 111.464 424.304 113.898 424.914 116.501C425.524 119.105 425.545 121.811 424.976 124.424Z" fill="black"/>
</svg>
