<svg width="111" height="56" viewBox="0 0 111 56" fill="none" xmlns="http://www.w3.org/2000/svg">
<path d="M5.01758 33.2812C5.07227 33.3177 5.2181 33.3815 5.45508 33.4727C5.70117 33.5638 6.02474 33.6549 6.42578 33.7461C6.82682 33.8281 7.26888 33.8691 7.75195 33.8691C8.69987 33.8691 9.50195 33.6686 10.1582 33.2676C10.8145 32.8665 11.1426 32.3105 11.1426 31.5996C11.1426 31.1712 10.9967 30.8112 10.7051 30.5195C10.4225 30.2279 10.0579 29.9863 9.61133 29.7949C9.17383 29.5944 8.53581 29.3438 7.69727 29.043C6.4668 28.6146 5.45052 28.1908 4.64844 27.7715C3.84635 27.3522 3.14909 26.7461 2.55664 25.9531C1.97331 25.1602 1.68164 24.1302 1.68164 22.8633C1.68164 21.6146 1.98698 20.5436 2.59766 19.6504C3.21745 18.748 4.0651 18.069 5.14062 17.6133C6.21615 17.1576 7.43294 16.9297 8.79102 16.9297C9.7207 16.9297 10.6413 17.0117 11.5527 17.1758C12.4733 17.3398 13.2298 17.513 13.8223 17.6953C14.4238 17.8685 14.8021 17.987 14.957 18.0508L14.8066 23.1367H12.2363L11.5391 20.7578C11.4661 20.7396 11.3066 20.6986 11.0605 20.6348C10.8145 20.571 10.5091 20.5072 10.1445 20.4434C9.77995 20.3704 9.42448 20.334 9.07812 20.334C8.13021 20.334 7.39648 20.5208 6.87695 20.8945C6.35742 21.2682 6.09766 21.7467 6.09766 22.3301C6.09766 22.9316 6.37565 23.4056 6.93164 23.752C7.49674 24.0892 8.38542 24.472 9.59766 24.9004C10.8281 25.3288 11.8398 25.748 12.6328 26.1582C13.4349 26.5684 14.1185 27.1562 14.6836 27.9219C15.2578 28.6875 15.5449 29.6673 15.5449 30.8613C15.5449 32.2285 15.2168 33.4043 14.5605 34.3887C13.9043 35.3639 13.0065 36.1068 11.8672 36.6172C10.7279 37.1185 9.43359 37.3691 7.98438 37.3691C7.05469 37.3691 6.125 37.2871 5.19531 37.123C4.27474 36.9681 3.50911 36.8086 2.89844 36.6445C2.28776 36.4714 1.90039 36.3574 1.73633 36.3027V30.9297H4.59375L5.01758 33.2812ZM17.9375 34.6211L20.0293 33.7734V20.6211L17.9375 19.7734V17.3945L24.6504 17.2578L32.2109 30.1914V20.6211L30.1738 19.7734V17.3945L38.1445 17.2578V19.7734L36.0527 20.6211V37H31.377L23.8711 24.3125V33.7734L26.0586 34.6211V37H17.9375V34.6211ZM52.3496 28.3184H46.6895V33.6367H51.707L52.3496 31.3398H54.8652V37H40.25V34.6211L42.3555 33.7734V20.6211L40.25 19.7734V17.3945L46.6895 17.2578H54.5371V22.6582H52.0078L51.3105 20.6211H46.6895V25.2422H52.3496V28.3184ZM56.5469 17.3945L65.2285 17.2578V19.7734L63.1641 20.5938L65.7344 28.6328L66.6367 32.0781L67.5254 28.7695L70.3008 20.6211L68.168 19.7734V17.3945L76.5488 17.2578V19.7734L74.498 20.6211L68.5918 37H64.1074L58.4609 20.5664L56.5469 19.7734V17.3945Z" fill="black"/>
<mask id="mask0_2_10" style="mask-type:alpha" maskUnits="userSpaceOnUse" x="79" y="13" width="32" height="30">
<path d="M110.114 13H79V43H110.114V13Z" fill="white"/>
</mask>
<g mask="url(#mask0_2_10)">
<path d="M94.9884 35.5143C96.1546 34.8275 97.0487 33.8945 97.6706 32.832C98.0205 32.223 98.5388 31.6917 99.1737 31.3418C100.573 30.5255 102.271 30.668 103.515 31.5232C103.087 29.5925 101.882 27.8432 100.029 26.7936C98.8887 26.1328 97.6188 25.8218 96.3748 25.8218C95.6751 25.8218 94.9754 25.6274 94.3534 25.2776C92.954 24.4612 92.2154 22.9322 92.3579 21.4161L92.2931 21.4291L92.2802 21.442C90.8418 22.7767 89.9348 24.6945 89.9348 26.8195C89.9348 28.1542 90.2976 29.4111 90.9196 30.4866C91.2695 31.0956 91.4638 31.7694 91.4638 32.508C91.4638 34.1278 90.5049 35.5272 89.1444 36.1751C91.0362 36.7582 93.1354 36.5768 94.9884 35.5143V35.5143ZM103.257 33.6265C102.609 32.5121 101.054 32.0845 99.9399 32.7453C99.5512 32.9656 99.2661 33.2766 99.0458 33.6394C98.2554 35 97.128 36.1403 95.7804 36.9307C94.4199 37.7212 92.8649 38.1358 91.31 38.1358C88.1094 38.1358 85.142 36.4254 83.5482 33.6524C82.9003 32.538 81.3454 32.1104 80.2181 32.7583C79.0519 33.4321 78.6502 34.9223 79.324 36.0755C81.786 40.3516 86.386 42.995 91.3229 42.995L91.2581 42.9691C93.6813 42.9691 96.0655 42.3212 98.1776 41.1161C100.277 39.8981 102.026 38.1617 103.231 36.0626C103.685 35.298 103.685 34.3651 103.257 33.6265V33.6265ZM108.252 40.0793C110.104 36.8658 110.597 33.1469 109.638 29.5834C108.679 26.02 106.399 23.0268 103.211 21.1868C101.112 19.9687 98.7145 19.3338 96.3044 19.3338C95.4232 19.3468 94.6328 19.8003 94.2052 20.5518C93.5184 21.7051 93.9331 23.1952 95.0993 23.869C95.4621 24.0893 95.8897 24.2059 96.3173 24.2059C97.8982 24.2059 99.4272 24.6206 100.788 25.3981C105.077 27.873 106.554 33.3671 104.079 37.6432C103.405 38.8094 103.807 40.2996 104.973 40.9734C105.349 41.1937 105.764 41.2973 106.191 41.2973L106.204 41.2844H106.152C107.008 41.2844 107.824 40.8179 108.252 40.0793V40.0793ZM87.3964 34.9506C88.744 34.9506 89.8324 33.8621 89.8324 32.5145C89.8324 32.0869 89.7158 31.6593 89.5085 31.2965C88.7181 29.9359 88.3034 28.3939 88.3034 26.826C88.3034 21.8891 92.3203 17.8721 97.2573 17.8721C98.6049 17.8721 99.6933 16.7707 99.6933 15.4361C99.6933 14.0885 98.6049 13 97.2702 13C89.6381 13 83.4442 19.2068 83.4442 26.826C83.4442 29.2491 84.0791 31.6334 85.2972 33.7325C85.7378 34.4841 86.5411 34.9506 87.3964 34.9506V34.9506Z" fill="black"/>
</g>
</svg>
