<svg width="21" height="21" viewBox="0 0 21 21" fill="none" xmlns="http://www.w3.org/2000/svg">
<path d="M20.8012 19.8575L15.3792 14.5223C16.799 12.9797 17.6714 10.9396 17.6714 8.69472C17.6707 3.89245 13.7152 0 8.83537 0C3.95556 0 0 3.89245 0 8.69472C0 13.497 3.95556 17.3894 8.83537 17.3894C10.9438 17.3894 12.8776 16.6602 14.3966 15.4478L19.8396 20.8041C20.1048 21.0653 20.5353 21.0653 20.8005 20.8041C20.8636 20.7424 20.9138 20.6689 20.948 20.5876C20.9823 20.5064 20.9999 20.4191 21 20.3309C21.0001 20.2427 20.9825 20.1555 20.9484 20.0742C20.9142 19.9929 20.8642 19.9192 20.8012 19.8575ZM8.83537 16.0517C4.70652 16.0517 1.35945 12.7579 1.35945 8.69472C1.35945 4.63156 4.70652 1.33773 8.83537 1.33773C12.9643 1.33773 16.3113 4.63156 16.3113 8.69472C16.3113 12.7579 12.9643 16.0517 8.83537 16.0517Z" fill="black"/>
</svg>
